<?xml version="1.0" encoding="UTF-8" standalone="no"?>
<!-- Created with Inkscape (http://www.inkscape.org/) -->

<svg
   version="1.1"
   id="svg1"
   width="454.3548"
   height="102.4624"
   viewBox="0 0 454.3548 102.4624"
   sodipodi:docname="Logo loja de semijoia simples e circular minimalista verde-escuro.png"
   inkscape:export-filename="3.png"
   inkscape:export-xdpi="96"
   inkscape:export-ydpi="96"
   xmlns:inkscape="http://www.inkscape.org/namespaces/inkscape"
   xmlns:sodipodi="http://sodipodi.sourceforge.net/DTD/sodipodi-0.dtd"
   xmlns="http://www.w3.org/2000/svg"
   xmlns:svg="http://www.w3.org/2000/svg">
  <defs
     id="defs1" />
  <sodipodi:namedview
     id="namedview1"
     pagecolor="#ffffff"
     bordercolor="#000000"
     borderopacity="0.25"
     inkscape:showpageshadow="2"
     inkscape:pageopacity="0.0"
     inkscape:pagecheckerboard="0"
     inkscape:deskcolor="#d1d1d1"
     showgrid="false">
    <inkscape:page
       x="0"
       y="0"
       width="454.3548"
       height="102.4624"
       id="page2"
       margin="0"
       bleed="0" />
  </sodipodi:namedview>
  <g
     inkscape:groupmode="layer"
     inkscape:label="Image"
     id="g1"
     transform="translate(-34.241852,-202.42612)">
    <path
       style="fill:#000000"
       d="m 38.583067,303.83324 c 0,-0.58041 -1.140407,-15.05683 -2.534238,-32.16983 -1.663167,-20.41983 -2.18973,-31.32746 -1.531949,-31.73399 0.551258,-0.3407 14.962713,-1.69323 32.025455,-3.00563 17.062742,-1.3124 31.277424,-2.13192 31.588184,-1.82117 0.31075,0.31076 1.07061,7.53796 1.688564,16.06045 1.015157,14.00058 0.955857,15.93451 -0.614664,20.04686 -0.95601,2.50328 -3.480065,6.12509 -5.609001,8.04846 -2.128937,1.92336 -5.590144,3.97446 -7.691572,4.558 -2.101429,0.58353 -4.945779,1.05359 -6.320779,1.04458 -1.375,-0.009 -4.318617,-0.84247 -6.54137,-1.85212 -2.222754,-1.00966 -5.172381,-3.17987 -6.554727,-4.8227 -1.382347,-1.64282 -5.853063,-8.88003 -9.934925,-16.08267 -4.081863,-7.20264 -7.534337,-12.98294 -7.672166,-12.84512 -0.137828,0.13783 4.689005,11.16301 10.726296,24.5004 6.03729,13.33739 10.976892,24.84269 10.976892,25.56733 0,0.72464 -0.5625,1.76964 -1.25,2.32223 -0.6875,0.55258 -6.996,1.50768 -14.01889,2.12244 -7.022889,0.61476 -13.660389,1.11775 -14.75,1.11775 -1.08961,0 -1.98111,-0.47487 -1.98111,-1.05527 z m 53.69366,-32.5888 c 0.424663,-1.10666 -0.307534,-2.33247 -2.239938,-3.75 -1.578956,-1.15826 -10.08948,-6.97624 -18.912275,-12.92884 -8.822796,-5.95259 -15.141447,-9.91477 -14.041447,-8.80484 1.1,1.10994 8.525,7.65798 16.5,14.55121 7.975,6.89323 15.301623,12.54291 16.281385,12.55484 0.979761,0.0119 2.065285,-0.71813 2.412275,-1.62237 z m 17.285783,26.77123 c -0.0113,-0.89494 -0.90206,-12.20216 -1.97944,-25.12716 -1.07738,-12.925 -1.96813,-25.83741 -1.97944,-28.69424 -0.0158,-4.00293 0.50877,-5.80962 2.28739,-7.87739 2.29134,-2.66383 2.49129,-2.69784 27.76663,-4.72218 22.23138,-1.78055 25.83046,-1.85948 28.39159,-0.62261 1.61311,0.77903 3.7145,2.76642 4.66977,4.41642 1.32057,2.28097 2.21179,8.7522 3.71848,27 1.54598,18.72363 1.72485,24.52985 0.81361,26.41007 -0.64242,1.32553 -2.29303,3.2405 -3.66803,4.25547 -2.05943,1.5202 -6.81762,2.19126 -27,3.80791 -13.475,1.07937 -26.4125,2.14663 -28.75,2.37168 -3.42069,0.32935 -4.25401,0.0917 -4.27056,-1.21797 z m 36.27056,-32.00957 c 9.2125,-14.18703 16.75,-26.54227 16.75,-27.45609 0,-0.92245 -0.78679,-1.6615 -1.76884,-1.6615 -1.22226,0 -5.5661,6.1678 -14.05766,19.96043 -6.75886,10.97824 -13.09279,20.95328 -14.07541,22.16676 -1.00516,1.24132 -2.427,1.96057 -3.2508,1.64445 -0.85781,-0.32917 -3.48887,-7.01207 -6.35288,-16.1363 -2.68876,-8.56594 -5.03634,-15.42674 -5.21685,-15.24623 -0.18051,0.18051 1.97138,9.84181 4.78199,21.46955 2.81061,11.62773 5.4095,21.12158 5.77532,21.09743 0.36582,-0.0241 8.20263,-11.65147 17.41513,-25.8385 z m 34.75,26.72834 c 0,-0.75964 -1.12165,-15.09823 -2.49255,-31.86354 -1.3709,-16.76532 -2.4959,-30.9648 -2.5,-31.55442 -0.005,-0.66871 6.16756,-1.5459 16.40584,-2.33159 11.84158,-0.90872 16.97566,-0.95859 18.43228,-0.17903 1.11044,0.59429 2.245,1.8685 2.52124,2.83159 0.27624,0.96308 0.84516,7.15106 1.26427,13.75106 l 0.76202,12 1.64371,-13 c 0.90404,-7.15 1.98038,-13.76573 2.39188,-14.70163 0.41149,-0.9359 2.17087,-2.13275 3.90974,-2.65967 1.73886,-0.52692 6.64907,-1.21795 10.91157,-1.53562 5.79996,-0.43224 7.75187,-0.26626 7.75745,0.65967 0.004,0.68049 1.1291,14.95432 2.5,31.71964 1.3709,16.76531 2.49255,30.99115 2.49255,31.61299 0,0.71804 -3.55785,1.37323 -9.75,1.7955 -5.3625,0.36569 -11.6625,0.92844 -14,1.25055 l -4.25,0.58566 0.0131,-5.86355 c 0.0114,-5.10715 1.04244,-8.24022 7.9926,-24.28761 4.38872,-10.13324 7.85275,-18.55083 7.69783,-18.70575 -0.15492,-0.15492 -3.63909,5.85213 -7.7426,13.34899 -4.10351,7.49687 -8.28108,14.67696 -9.2835,15.95575 -1.00243,1.27879 -2.83649,2.32508 -4.0757,2.32508 -1.2392,0 -3.1982,-1.0125 -4.35333,-2.25 -1.15513,-1.2375 -4.90461,-8.21645 -8.3322,-15.50879 -6.08504,-12.9462 -9.98117,-20.63082 -0.88909,3.86958 3.34512,9.01407 6.72583,19.08921 7.51268,22.38921 0.78686,3.3 1.4373,6.73399 1.44543,7.63108 0.0123,1.35272 -1.64914,1.74434 -9.73522,2.29471 -5.3625,0.36499 -11.6625,0.9196 -14,1.23246 -3.22315,0.4314 -4.25,0.23513 -4.25,-0.81232 z m 71.67036,-8.97963 c -0.32538,-2.40146 -1.56386,-16.87427 -2.75217,-32.16178 -1.18831,-15.28751 -1.85161,-28.10444 -1.47399,-28.48205 0.37762,-0.37762 12.91965,-1.68497 27.87119,-2.90523 14.95154,-1.22025 29.25882,-2.24083 31.79397,-2.26794 l 4.60936,-0.0493 1.2333,15.29903 c 0.92108,11.42595 0.95002,16.35104 0.11434,19.45453 -0.61543,2.28553 -2.25113,5.501 -3.63488,7.14551 -1.38376,1.6445 -3.95943,3.87718 -5.7237,4.9615 -1.76428,1.08433 -4.91325,2.28774 -6.99771,2.67425 -2.21018,0.40982 -5.61577,0.19154 -8.17025,-0.52367 -2.40918,-0.67453 -5.77345,-2.58846 -7.47616,-4.25317 -1.70272,-1.66472 -6.51537,-9.04128 -10.69478,-16.39237 -4.17942,-7.35109 -7.7665,-13.36561 -7.9713,-13.36561 -0.2048,0 0.68428,2.3625 1.97574,5.25 1.29145,2.8875 6.26199,13.89311 11.04564,24.4569 6.99274,15.44217 8.49709,19.58145 7.67487,21.11777 -0.82927,1.54952 -2.58949,2.0356 -9.30825,2.57047 -4.55707,0.36278 -11.26414,0.92462 -14.9046,1.24854 l -6.61901,0.58893 z m 53.98506,-29.3663 c 0.17164,-0.55 -0.0181,-1.47797 -0.42168,-2.06216 -0.40356,-0.58419 -8.49624,-6.34623 -17.98374,-12.80455 -9.4875,-6.45831 -17.25,-11.51509 -17.25,-11.23728 0,0.27781 7.07696,6.62029 15.72658,14.09441 10.4911,9.06534 16.37411,13.4928 17.67167,13.29944 1.0698,-0.15942 2.08553,-0.73986 2.25717,-1.28986 z m 16.9939,23.25 c -0.31777,-2.3375 -1.56037,-16.74599 -2.76134,-32.01887 -1.20096,-15.27288 -1.94039,-28.01206 -1.64316,-28.30928 0.29723,-0.29723 14.78643,-1.69105 32.19822,-3.09738 17.41179,-1.40633 31.85242,-2.36235 32.09027,-2.12449 0.23786,0.23786 0.85776,5.33031 1.37756,11.31656 0.59016,6.7966 0.59202,11.54381 0.005,12.64075 -0.51707,0.96615 -2.39716,2.01135 -4.17797,2.32265 -2.36811,0.41397 -9.67399,-1.44307 -27.19812,-6.91335 -13.17816,-4.11366 -24.09366,-7.346 -24.25668,-7.18298 -0.16301,0.16302 6.34411,3.12239 14.46028,6.57637 8.11617,3.45398 15.9931,7.15586 17.50428,8.22639 1.51119,1.07053 3.01551,3.01381 3.34294,4.3184 0.3521,1.40286 -0.0841,3.52219 -1.06767,5.18721 -0.91465,1.54838 -7.70647,7.29367 -15.09294,12.76733 -7.38652,5.47365 -13.42999,10.11109 -13.42999,10.30541 0,0.19432 0.3375,0.16577 0.75,-0.0635 0.4125,-0.22922 11.29581,-6.61343 24.18513,-14.18712 17.99017,-10.57093 23.79871,-13.54245 25,-12.78947 1.19924,0.75171 1.8816,4.53432 2.92044,16.18921 0.74556,8.36457 1.10371,15.46018 0.79587,15.76801 -0.30783,0.30784 -13.51784,1.62043 -29.35557,2.91689 -15.83773,1.29645 -30.20728,2.36709 -31.93233,2.3792 -2.93729,0.0206 -3.17314,-0.24785 -3.71422,-4.22798 z m 87.49443,-3.83902 c -1.84594,-0.56278 -5.07245,-2.15896 -7.17003,-3.54707 -2.09758,-1.38811 -4.89818,-4.17536 -6.22355,-6.19388 -1.32538,-2.01852 -2.91424,-5.13621 -3.5308,-6.92821 -0.61657,-1.79201 -1.88364,-12.71403 -2.81571,-24.27117 -0.93206,-11.55714 -1.51669,-21.18994 -1.29916,-21.40623 0.21752,-0.21628 6.63873,-0.91603 14.26935,-1.55498 7.63062,-0.63896 14.21594,-0.78997 14.63404,-0.33559 0.4181,0.45438 6.6579,12.07615 13.86622,25.82615 7.20832,13.75 13.1105,24.703 13.11596,24.34 0.005,-0.363 -4.71507,-11.69202 -10.49007,-25.17561 -5.775,-13.48358 -10.5,-24.92085 -10.5,-25.41615 0,-0.4953 6.59232,-1.43645 14.64961,-2.09145 8.05728,-0.655 14.79621,-1.0443 14.97539,-0.86512 0.17918,0.17918 1.46111,14.02436 2.84873,30.76706 1.38762,16.7427 2.52369,31.36483 2.5246,32.49362 0.002,1.93927 -0.92124,2.12014 -16.74833,3.28254 -9.2125,0.6766 -19.45,1.42574 -22.75,1.66475 -3.3,0.23901 -7.51031,-0.0259 -9.35625,-0.58866 z"
       id="path1"
       sodipodi:nodetypes="ssssssssssssssssssssssssssssssssssssssssssssssssssssscsssscsssscsssscssssssssssssssssssscsssssssssssssscsssssssssssssssssssssssssssssssssssssssssscssssscsss" />
    <circle
       style="fill:none;fill-opacity:1;stroke:#000000;stroke-width:2.79552;stroke-opacity:1"
       id="path2"
       cy="215.82388"
       cx="475.19888"
       r="12" />
    <text
       xml:space="preserve"
       style="font-style:normal;font-variant:normal;font-weight:normal;font-stretch:normal;font-size:17.8791px;font-family:Ubuntu;-inkscape-font-specification:'Ubuntu, Normal';font-variant-ligatures:normal;font-variant-caps:normal;font-variant-numeric:normal;font-variant-east-asian:normal;text-align:start;writing-mode:lr-tb;direction:ltr;text-anchor:start;fill:none;fill-opacity:1;stroke:#000000;stroke-width:1.48993;stroke-opacity:1"
       x="469.47702"
       y="222.07263"
       id="text3"><tspan
         sodipodi:role="line"
         id="tspan3"
         x="469.47702"
         y="222.07263"
         style="stroke-width:1.48993">R</tspan></text>
  </g>
</svg>
