<?xml version="1.0" encoding="UTF-8" standalone="no"?>
<!-- Created with Inkscape (http://www.inkscape.org/) -->

<svg
   version="1.1"
   id="svg1"
   width="1109.6541"
   height="280.85977"
   viewBox="0 0 1109.6541 280.85977"
   xmlns="http://www.w3.org/2000/svg"
   xmlns:svg="http://www.w3.org/2000/svg">
  <defs
     id="defs1" />
  <g
     id="g1"
     transform="translate(-118.50213,-424.6705)">
    <g
       id="g3"
       style="fill:#ffffff;fill-opacity:1">
      <path
         style="fill:#ffffff;fill-opacity:1;stroke-width:0.888092"
         d="m 469.40533,606.63186 c -22.47013,-0.43213 -23.19233,-0.50242 -26.88506,-2.61718 -2.77608,-1.58981 -4.40366,-3.41789 -6.06344,-6.81036 -2.23231,-4.56266 -2.26411,-4.9133 -1.97794,-21.80537 0.28496,-16.82162 0.33942,-17.25078 2.69745,-21.26189 1.86492,-3.1723 3.4641,-4.57158 7.10475,-6.21664 4.6204,-2.08779 5.20499,-2.12718 35.33732,-2.38171 36.39108,-0.30738 41.36179,0.3243 47.0117,5.9742 2.30126,2.30126 3.51477,4.4364 3.90367,6.8684 1.3014,8.13854 1.6097,21.73364 0.67802,29.89801 -1.15104,10.08641 -3.22907,13.78101 -9.34588,16.61636 -4.33279,2.00838 -16.81855,2.42159 -52.46059,1.73618 z m 31.24207,-16.82589 c 3.07188,-2.03883 3.83895,-4.86718 3.81784,-14.07713 -0.0312,-13.60644 -1.18952,-14.38971 -21.28019,-14.38971 -20.51511,0 -21.3285,0.57678 -21.3285,15.12419 0,9.38133 1.27753,13.60779 4.3911,14.52699 0.75982,0.22431 8.37522,0.33856 16.92312,0.25389 11.87012,-0.1176 15.99874,-0.45735 17.47663,-1.43823 z m 43.98437,16.65325 c -0.79122,-0.79122 -1.0707,-8.53923 -1.0707,-29.68346 0,-15.73702 0.24256,-29.24489 0.53906,-30.01753 0.80604,-2.10051 24.75861,-2.10051 25.56465,0 0.29649,0.77264 0.53906,10.74961 0.53906,22.17107 0,19.62211 0.0946,20.81696 1.71781,21.68564 1.07111,0.57324 11.43561,0.91934 27.53087,0.91934 h 25.81307 v 7.45251 c 0,7.04664 -0.11181,7.48057 -2.05284,7.96775 -1.12906,0.28337 -19.03078,0.52875 -39.78157,0.5453 -28.29217,0.0226 -37.99653,-0.23772 -38.79941,-1.04062 z m 282.63788,-0.0477 c -0.23734,-0.6185 -0.3261,-14.50971 -0.19727,-30.86934 l 0.23428,-29.74476 12.22947,-0.24721 c 9.31244,-0.18824 12.32122,0.0236 12.61408,0.88809 0.21151,0.62442 0.58205,10.69018 0.82339,22.36838 0.3325,16.08921 0.71901,21.4108 1.59541,21.9667 0.63614,0.40348 12.80338,0.73973 27.0383,0.7472 29.45383,0.0154 26.95981,-0.77008 26.95981,8.49186 0,4.58992 -0.31014,5.83472 -1.62966,6.54089 -2.62896,1.40699 -79.12573,1.27082 -79.66781,-0.14179 z m 351.49975,0.43194 -34.8577,-0.23233 v -30.57648 c 0,-18.81834 0.3316,-30.78143 0.8623,-31.10945 0.7752,-0.47909 75.4693,-0.67069 80.8422,-0.20737 2.1791,0.18793 2.2202,0.33134 2.2202,7.74027 v 7.54878 l -26.6428,0.53973 c -33.3762,0.67618 -30.6392,0.45321 -30.6392,2.49595 0,4.76248 -0.7101,4.64212 23.4563,3.97651 16.747,-0.46126 22.8491,-0.34731 24.3475,0.45462 1.8604,0.99567 1.9816,1.5765 1.7424,8.34687 l -0.257,7.27674 -23.9053,0.23681 c -16.3603,0.16207 -24.293,0.55852 -25.1336,1.25612 -0.6755,0.56063 -1.1081,2.05263 -0.9613,3.31556 l 0.267,2.29625 28.863,0.44405 28.863,0.44405 0.2581,7.34076 c 0.1898,5.39441 -0.046,7.44006 -0.888,7.71523 -2.3019,0.75195 -14.3091,0.92481 -48.4371,0.69734 z m -849.02817,-31.04906 0.23357,-30.88502 11.10115,-0.25669 c 16.27239,-0.37625 15.09758,-1.22817 15.09758,10.94804 v 10.21346 l 19.31602,-0.23934 19.31601,-0.23935 0.44404,-10.21306 0.44405,-10.21306 h 12.43329 12.4333 l 0.74106,29.58128 c 0.40758,16.26969 0.51581,30.16827 0.24049,30.88571 -0.41416,1.07931 -2.68788,1.26188 -13.17435,1.05791 l -12.67379,-0.24651 -0.24947,-10.34913 c -0.17694,-7.3406 -0.59721,-10.63772 -1.44571,-11.3419 -0.81724,-0.67827 -6.92825,-0.91653 -19.28858,-0.75204 l -18.09232,0.24075 -0.44404,11.10116 -0.44405,11.10116 -13.11091,0.24583 -13.11089,0.24582 z m 324.81929,21.75821 c -0.0146,-11.06022 -0.28761,-12.19233 -3.48453,-14.45526 -1.38012,-0.9769 -5.27279,-4.37385 -8.65037,-7.54879 -6.50057,-6.1105 -21.4599,-19.77344 -24.61131,-22.47845 -6.1712,-5.29703 -7.51245,-6.6664 -7.01592,-7.16294 0.30456,-0.30457 8.7434,-0.55374 18.75297,-0.55374 h 18.1992 l 9.12806,8.88092 c 5.02044,4.88451 9.82967,8.88092 10.68717,8.88092 0.8575,0 5.62027,-3.99641 10.58393,-8.88092 l 9.02486,-8.88092 16.33643,-0.0765 c 8.98504,-0.0421 33.67411,-0.01 54.86459,0.0707 43.02622,0.16442 42.01852,0.0295 48.26297,6.46777 1.88429,1.94283 3.74513,5.01637 4.3195,7.13454 1.49589,5.51654 0.42678,14.09294 -2.40548,19.29672 -4.68113,8.6008 -7.92131,9.47478 -37.50182,10.11554 -12.86805,0.27875 -23.7583,0.73043 -24.20052,1.00376 -0.44224,0.2733 -0.80408,3.5941 -0.80408,7.37951 0,10.0979 0.15725,9.99069 -14.2175,9.6916 l -11.98123,-0.24932 -0.44404,-26.19872 c -0.3751,-22.13049 -0.64182,-26.15579 -1.71773,-25.9222 -0.70051,0.15212 -3.69784,2.62114 -6.66069,5.48672 -2.96286,2.86562 -6.58593,6.1148 -8.05128,7.22046 -3.13481,2.3653 -8.58643,7.15067 -15.98567,14.03202 l -5.32857,4.9556 -0.44405,10.21306 -0.44403,10.21306 -13.09936,0.24578 -13.09937,0.24577 z m 127.23139,-27.51955 c 3.09092,-2.16435 3.20129,-5.32803 0.25326,-7.25965 -1.82136,-1.19341 -5.02793,-1.43428 -19.09399,-1.43428 h -16.90501 v 4.70689 c 0,2.58879 0.45599,5.16288 1.01331,5.72019 0.72272,0.72272 5.49791,0.86472 16.65175,0.49515 13.47088,-0.44635 15.97693,-0.75521 18.08068,-2.2283 z m 138.54244,35.97204 c -2.44858,-0.47163 -2.51847,-1.94528 -0.28121,-5.92856 2.72949,-4.85962 10.2071,-16.06209 10.93833,-16.38708 0.36633,-0.16281 0.66606,-0.63772 0.66606,-1.05536 0,-0.41762 2.90579,-5.08011 6.45731,-10.36107 3.55153,-5.28096 8.81089,-13.39836 11.68747,-18.03864 2.87659,-4.64028 5.84197,-8.93644 6.58977,-9.547 0.94605,-0.77244 5.20544,-1.11011 14.00276,-1.11011 h 12.64315 l 1.83098,2.44225 c 2.63905,3.52008 3.06161,4.12045 4.25343,6.0431 7.54302,12.16794 22.0645,34.62594 28.7058,44.39476 6.8888,10.13267 7.3,9.69603 -9.3506,9.93058 l -14.2095,0.20016 -4.00681,-5.52872 -4.00672,-5.52871 -16.14107,-0.24184 -16.14105,-0.24184 -2.85733,4.15298 c -5.27208,7.66272 -4.75596,7.4466 -17.45939,7.31091 -6.22774,-0.0665 -12.22236,-0.29413 -13.32138,-0.50581 z m 53.94723,-28.01424 c 0,-0.61055 -0.99875,-2.30902 -2.21412,-3.77439 l -2.20964,-2.66427 -2.2264,2.49177 c -3.47074,3.88451 -2.95739,5.05701 2.21413,5.05701 2.96259,0 4.43895,-0.36944 4.43603,-1.11012 z m 72.38402,27.15186 c -1.9538,-0.79258 -4.8203,-2.37713 -6.3701,-3.52121 -5.1533,-3.80439 -5.5804,-5.73023 -5.7581,-25.96536 -0.1507,-17.16139 -0.041,-18.54615 1.7451,-22.01304 2.1571,-4.18707 5.4511,-6.83694 10.8801,-8.75239 4.9964,-1.76284 63.6482,-1.93482 69.3485,-0.20333 7.9829,2.42486 13.1494,9.73683 13.1776,18.64994 l 0.013,4.21845 h -13.1789 c -13.1196,0 -13.1833,-0.01 -14.169,-2.17326 -2.1358,-4.68761 -4.0931,-5.1356 -20.9613,-4.79774 -14.9673,0.29978 -15.5697,0.38324 -17.7829,2.46332 -2.1968,2.06459 -2.291,2.55977 -2.291,12.05646 0,9.42363 0.1078,10.00483 2.2271,11.99576 2.0684,1.94302 3.1087,2.12043 14.582,2.48659 18.0916,0.57738 21.9058,-0.31741 24.823,-5.82344 1.0142,-1.91403 1.5409,-1.9982 12.5002,-1.9982 6.2926,0 12.0734,0.24257 12.846,0.53905 3.4032,1.3059 0.7283,13.21116 -4.0819,18.16767 -5.2765,5.43711 -6.4855,5.60603 -42.0263,5.8723 -27.8134,0.20836 -32.4332,0.0521 -35.5236,-1.20157 z"
         id="path1" />
      <g
         id="g2"
         transform="translate(-747.75263,-80.889761)"
         style="fill:#ffffff;fill-opacity:1">
        <g
           id="g8"
           transform="matrix(0.80507929,0,0,0.80507929,528.20793,282.93726)"
           style="fill:#ffffff;fill-opacity:1">
          <path
             d="m 547.0332,467.38281 1.5625,4.25 c 1.08772,2.95907 1.68955,9.1431 1.98242,20.35938 l 0.41993,16.10937 -6.11133,0.69141 c -3.36203,0.38037 -9.93366,0.38251 -14.60156,0.004 l -8.48633,-0.68945 v 11.7461 c 0,10.80097 0.14058,11.68367 1.75,11.00195 3.32131,-1.40686 10.77619,-2.35268 19,-2.41211 l 8.25,-0.0606 v 42.04102 c 0,40.7932 -0.063,42.1647 -2.11328,46.25 -1.16206,2.3156 -3.04004,5.22149 -4.17383,6.45898 l -2.0625,2.25 h 17.13476 17.13282 l -3.06836,-4.93359 c -4.24504,-6.8289 -4.75443,-12.74052 -4.80664,-55.81641 l -0.043,-36.25 h 12.28906 c 10.28307,0 12.9238,0.32343 16.18164,1.98438 2.1413,1.09168 4.08029,1.79863 4.30859,1.57031 0.69189,-0.69189 0.76743,-24.33212 0.0801,-25.02344 -0.35185,-0.35388 -2.82969,0.0733 -5.50781,0.94922 -3.54371,1.1591 -7.8624,1.51498 -15.86133,1.30664 l -10.99023,-0.28711 0.043,-17.5 c 0.0264,-10.56737 0.50222,-18.78749 1.19922,-20.75 l 1.15429,-3.25 H 559.3633 Z"
             style="fill:#ffffff;fill-opacity:1"
             id="path8" />
          <path
             d="m 547.0332,467.38281 h 12.33008 12.33203 l -1.15429,3.25 c -0.697,1.96251 -1.17282,10.18263 -1.19922,20.75 l -0.043,17.5 10.99023,0.28711 c 7.99893,0.20834 12.31762,-0.14754 15.86133,-1.30664 2.67812,-0.87591 5.15596,-1.3031 5.50781,-0.94922 0.68735,0.69132 0.61181,24.33155 -0.0801,25.02344 -0.2283,0.22832 -2.16729,-0.47863 -4.30859,-1.57031 -3.25784,-1.66095 -5.89857,-1.98438 -16.18164,-1.98438 h -12.28906 l 0.043,36.25 c 0.0522,43.07589 0.5616,48.98751 4.80664,55.81641 l 3.06836,4.93359 H 559.58396 542.4492 l 2.0625,-2.25 c 1.13379,-1.23749 3.01177,-4.14338 4.17383,-6.45898 2.05029,-4.0853 2.11328,-5.4568 2.11328,-46.25 v -42.04102 l -8.25,0.0606 c -8.22381,0.0594 -15.67869,1.00525 -19,2.41211 -1.60942,0.68172 -1.75,-0.20098 -1.75,-11.00195 v -11.7461 l 8.48633,0.68945 c 4.6679,0.37861 11.23953,0.37647 14.60156,-0.004 l 6.11133,-0.69141 -0.41993,-16.10937 c -0.29287,-11.21628 -0.8947,-17.40031 -1.98242,-20.35938 z"
             style="fill:#ffffff;fill-opacity:1"
             id="path7" />
          <path
             d="m 511.70117,420.11523 -5.20117,0.625 c -2.86076,0.34366 -8.67624,0.63 -12.92383,0.63477 l -7.72265,0.008 -0.27735,84.75 c -0.26315,80.47432 -0.37051,84.92652 -2.14062,88.25 -1.02528,1.92499 -3.01429,4.72983 -4.41993,6.23242 l -2.55664,2.73243 7.39454,3.26757 c 4.06682,1.79741 14.60582,6.48473 23.41992,10.41602 17.62737,7.8623 16.94168,7.60324 17.80078,6.74414 0.33476,-0.33481 -1.78548,-3.8223 -4.71094,-7.75 -2.92545,-3.9277 -5.93623,-8.26757 -6.69141,-9.64258 C 512.54231,604.326 512.24567,587.59354 512,512 Z"
             style="fill:#ffffff;fill-opacity:1"
             id="path6" />
          <path
             d="M 511.70117,420.11523 512,512 c 0.24567,75.59354 0.54231,92.326 1.67187,94.38281 0.75518,1.37501 3.76596,5.71488 6.69141,9.64258 2.92546,3.9277 5.0457,7.41519 4.71094,7.75 -0.8591,0.8591 -0.17341,1.11816 -17.80078,-6.74414 -8.8141,-3.93129 -19.3531,-8.61861 -23.41992,-10.41602 l -7.39454,-3.26757 2.55664,-2.73243 c 1.40564,-1.50259 3.39465,-4.30743 4.41993,-6.23242 1.77011,-3.32348 1.87747,-7.77568 2.14062,-88.25 l 0.27735,-84.75 7.72265,-0.008 c 4.24759,-0.005 10.06307,-0.29111 12.92383,-0.63477 z"
             style="fill:#ffffff;fill-opacity:1"
             id="path5" />
          <path
             d="m 471.16992,276.67383 c -0.5174,-0.17247 -9.70013,3.22139 -20.40625,7.54101 -10.70612,4.31961 -21.93985,8.6587 -24.96484,9.64453 -3.025,0.98584 -5.67212,1.94263 -5.88281,2.125 -0.2107,0.18239 1.02431,1.93381 2.74414,3.89258 1.71981,1.95876 4.14193,5.46101 5.38281,7.78321 l 2.25586,4.22265 v 100 c 0,111.67435 0.54411,103.02966 -6.97656,110.77344 l -3.31446,3.41211 20.64453,7.71094 c 11.35514,4.24015 21.99649,8.32273 23.64649,9.07422 3.3065,1.50594 4.5,1.78272 4.5,1.03906 0,-0.27023 -1.5942,-2.58177 -3.54297,-5.13477 -6.9188,-9.06413 -6.49936,-4.53873 -6.21484,-67.09179 l 0.25781,-56.78321 43.25,-0.25976 43.25,-0.26172 v 11.95312 c 0,6.57337 -0.37394,12.18097 -0.83008,12.46289 -0.45614,0.28191 -3.94365,0.99528 -7.75,1.58594 -8.16822,1.26756 -10.41992,3.2582 -10.41992,9.20703 v 3.9668 l 36.25,-0.39649 c 32.62234,-0.35568 36.95051,-0.59594 43.25,-2.4082 11.8415,-3.40661 18.34785,-7.1804 26.52929,-15.38672 12.55818,-12.5964 17.92694,-26.25211 17.95508,-45.66406 0.0268,-18.4655 -3.41798,-27.9566 -13.90429,-38.29883 -7.64015,-7.53516 -15.75905,-12.1562 -26.76563,-15.23437 -7.58984,-2.12262 -9.62862,-2.19443 -71.06445,-2.5293 -36.02738,-0.19637 -63.25,0.0337 -63.25,0.53516 0,0.48418 1.187,1.97131 2.63672,3.30468 5.77532,5.31187 6.75782,9.57506 7.18359,31.17383 l 0.38867,19.75 H 489.75 c 2.05811,0 7.79658,0.28889 12.75195,0.64063 l 9.00977,0.63867 0.5332,-18.88867 c 0.29394,-10.38924 0.85195,-19.66574 1.24024,-20.61328 0.3883,-0.94754 2.28569,-2.01896 4.21484,-2.38086 5.23881,-0.9828 67.02271,0.3367 72.79883,1.55468 8.09822,1.70765 16.89936,6.58741 21.88867,12.13672 19.74,21.95562 12.24456,58.12244 -14.8125,71.46485 -8.66002,4.27044 -18.37602,6.31496 -22.05078,4.64062 l -2.52539,-1.15039 v -41.63867 -41.63672 l -2.25,0.60156 c -1.2375,0.33164 -7.3125,0.60968 -13.5,0.61719 l -11.25,0.0137 v 19.94141 c 0,12.94067 -0.37219,20.16953 -1.0586,20.59375 -1.23227,0.76159 -83.87054,0.62696 -85.10937,-0.13867 -1.34436,-0.83086 -1.04774,-100.12555 0.30664,-102.65625 0.62644,-1.17051 3.62164,-5.0537 6.65625,-8.63086 3.0346,-3.57716 5.0936,-6.64589 4.57617,-6.81836 z"
             style="fill:#ffffff;fill-opacity:1"
             id="path4" />
          <path
             d="m 531.05469,276.56055 c -0.67881,0.31227 1.12665,2.59266 5.76953,7.42773 8.36691,8.71329 8.97461,10.5647 8.97461,27.36328 v 14.03125 h 13.5 13.5 l 0.0215,-7.25 c 0.0234,-7.73849 1.90841,-13.34697 6.51367,-19.38476 l 2.4336,-3.19141 -5.73438,-2.01758 c -4.74216,-1.66753 -37.4026,-14.17749 -43.48437,-16.65625 -0.76558,-0.31202 -1.26787,-0.42635 -1.49414,-0.32226 z"
             style="fill:#ffffff;fill-opacity:1"
             id="path3" />
        </g>
      </g>
    </g>
  </g>
</svg>
